<svg width="96" height="96" xmlns="http://www.w3.org/2000/svg" xmlns:xlink="http://www.w3.org/1999/xlink" xml:space="preserve" overflow="hidden"><g transform="translate(-516 -322)"><path d="M592 340C592 344.418 579.464 348 564 348 548.536 348 536 344.418 536 340 536 335.582 548.536 332 564 332 579.464 332 592 335.582 592 340Z" stroke="#000000" stroke-width="1.33333"/><path d="M584 360C582.8 360 582 359.2 582 358 582 356.8 582.8 356 584 356 585.2 356 586 356.8 586 358 586 359.2 585.2 360 584 360ZM564 352C548.6 352 536 348.4 536 344L536 360C536 364.4 548.6 368 564 368 579.4 368 592 364.4 592 360L592 344C592 348.4 579.4 352 564 352Z" stroke="#000000" stroke-width="1.33333"/><path d="M584 380C582.8 380 582 379.2 582 378 582 376.8 582.8 376 584 376 585.2 376 586 376.8 586 378 586 379.2 585.2 380 584 380ZM564 372C548.6 372 536 368.4 536 364L536 380C536 384.4 548.6 388 564 388 579.4 388 592 384.4 592 380L592 364C592 368.4 579.4 372 564 372Z" stroke="#000000" stroke-width="1.33333"/><path d="M584 400C582.8 400 582 399.2 582 398 582 396.8 582.8 396 584 396 585.2 396 586 396.8 586 398 586 399.2 585.2 400 584 400ZM564 392C548.6 392 536 388.4 536 384L536 400C536 404.4 548.6 408 564 408 579.4 408 592 404.4 592 400L592 384C592 388.4 579.4 392 564 392Z" stroke="#000000" stroke-width="1.33333"/></g></svg>