<svg width="96" height="96" xmlns="http://www.w3.org/2000/svg" xmlns:xlink="http://www.w3.org/1999/xlink" xml:space="preserve" overflow="hidden"><g transform="translate(-668 -280)"><path d="M692.86 325.673C693.412 326.63 694.635 326.958 695.592 326.405 695.69 326.349 695.784 326.284 695.871 326.211 696.625 325.546 696.793 324.436 696.271 323.577L692.081 316.324C691.529 315.367 690.306 315.039 689.349 315.591 689.349 315.591 689.348 315.592 689.347 315.592L682.1 319.779C681.175 320.288 680.778 321.408 681.175 322.386 681.627 323.394 682.81 323.845 683.818 323.393 683.88 323.365 683.941 323.334 684 323.3L687.005 321.557C687.018 321.548 687.035 321.552 687.044 321.564 687.049 321.571 687.05 321.579 687.048 321.587 683.961 337.859 694.65 353.552 710.922 356.638 711.136 356.679 711.35 356.717 711.565 356.753 711.674 356.771 711.784 356.78 711.895 356.78 713 356.783 713.897 355.889 713.9 354.785 713.9 354.737 713.898 354.689 713.895 354.641 713.804 353.688 713.071 352.922 712.123 352.79 697.969 350.356 688.467 336.909 690.901 322.754 690.912 322.69 690.924 322.626 690.935 322.562 690.938 322.545 690.954 322.534 690.971 322.537 690.98 322.538 690.987 322.543 690.992 322.551Z" fill="#E45F3C"/><path d="M727.117 348.415C727.664 347.455 727.329 346.234 726.369 345.687 726.309 345.653 726.247 345.622 726.184 345.594 725.205 345.202 724.087 345.606 723.584 346.533L719.436 353.8C718.888 354.759 719.222 355.981 720.182 356.528 720.182 356.529 720.183 356.529 720.183 356.529L727.461 360.68C728.323 361.198 729.433 361.022 730.094 360.264 730.795 359.41 730.671 358.15 729.818 357.449 729.73 357.377 729.636 357.312 729.537 357.256L726.479 355.52C726.465 355.512 726.46 355.495 726.468 355.481 726.471 355.474 726.477 355.469 726.484 355.467 742.119 349.957 750.327 332.815 744.817 317.179 744.771 317.049 744.724 316.918 744.676 316.788 744.323 315.798 743.284 315.23 742.26 315.469 741.193 315.753 740.557 316.849 740.841 317.916 740.858 317.978 740.878 318.04 740.9 318.1 745.904 331.571 739.04 346.548 725.569 351.552 725.513 351.573 725.456 351.594 725.4 351.614 725.384 351.62 725.366 351.612 725.36 351.596 725.357 351.587 725.358 351.578 725.362 351.57Z" fill="#E45F3C"/><path d="M735.983 304.276C735.982 304.293 735.968 304.305 735.952 304.305 735.945 304.305 735.939 304.302 735.934 304.298 723.31 293.577 704.386 295.12 693.665 307.743 693.643 307.769 693.622 307.794 693.6 307.82 692.944 308.577 692.927 309.695 693.56 310.471 694.278 311.31 695.541 311.408 696.38 310.689 696.463 310.618 696.541 310.54 696.611 310.456 705.764 299.537 722.005 298.03 733.011 307.079 733.026 307.092 733.027 307.115 733.014 307.13 733.008 307.137 732.999 307.142 732.989 307.142L729.516 307.142C728.411 307.142 727.516 308.037 727.515 309.141 727.515 309.255 727.525 309.368 727.544 309.48 727.743 310.465 728.62 311.166 729.625 311.144L737.741 311.144C737.816 311.157 737.892 311.165 737.968 311.169 738.355 311.167 738.732 311.052 739.055 310.839 739.101 310.81 739.144 310.778 739.188 310.746 739.21 310.729 739.233 310.717 739.254 310.7 739.275 310.683 739.279 310.672 739.293 310.66 739.334 310.625 739.379 310.597 739.417 310.56 739.791 310.184 740.001 309.674 740 309.143L740 300.765C740.022 299.76 739.321 298.883 738.335 298.684 737.246 298.499 736.213 299.232 736.028 300.321 736.009 300.432 736 300.545 736 300.658Z" fill="#E45F3C"/><path d="M708.709 314.49 702.221 318.422 716.542 327.101 723.03 323.169 708.709 314.49Z" fill="#E45F3C"/><path d="M730.864 318.422 716.542 309.742 710.38 313.474 724.701 322.154 730.864 318.422Z" fill="#E45F3C"/><path d="M702.221 321.894 702.221 335.781 715.674 343.936 715.674 328.612 702.221 320.461 702.221 321.894Z" fill="#E45F3C"/><path d="M722.184 331.007 719.146 332.743 719.146 329.705 722.184 327.969ZM717.41 328.6 717.41 343.936 730.864 335.781 730.864 320.453Z" fill="#E45F3C"/></g></svg>