<?xml version="1.0" standalone="no"?>
<!DOCTYPE svg PUBLIC "-//W3C//DTD SVG 20010904//EN"
 "http://www.w3.org/TR/2001/REC-SVG-20010904/DTD/svg10.dtd">
<svg version="1.0" xmlns="http://www.w3.org/2000/svg"
 width="94.000000pt" height="74.000000pt" viewBox="0 0 94.000000 74.000000"
 preserveAspectRatio="xMidYMid meet">
<metadata>
Created by potrace 1.10, written by Peter Selinger 2001-2011
</metadata>
<g transform="translate(0.000000,74.000000) scale(0.100000,-0.100000)"
fill="#000000" stroke="none">
<path d="M50 691 c-6 -12 -10 -134 -10 -326 l0 -305 26 -10 c35 -14 789 -13
815 0 18 10 19 24 19 280 0 148 -3 271 -7 273 -5 3 -7 -110 -5 -250 2 -182 -1
-259 -9 -269 -9 -12 -82 -14 -410 -14 -384 0 -399 1 -409 19 -6 12 -10 125
-10 298 0 236 2 282 16 301 8 12 11 22 5 22 -6 0 -15 -9 -21 -19z"/>
<path d="M82 692 c-9 -3 -12 -74 -12 -298 0 -162 3 -294 8 -294 4 0 6 126 4
280 l-3 279 25 7 c14 3 67 4 118 2 89 -4 96 -6 160 -46 37 -23 79 -42 93 -42
19 0 25 -5 25 -21 0 -19 1 -19 16 -4 13 12 32 15 87 13 l72 -3 2 -33 c2 -18
12 -53 23 -77 28 -61 25 -98 -10 -147 -34 -46 -33 -58 3 -35 28 18 57 74 57
110 0 32 -17 79 -32 88 -6 4 -12 18 -13 31 -1 12 -5 35 -9 49 l-7 26 77 -3
c43 -2 81 -7 86 -12 4 -4 9 -111 11 -237 l2 -230 3 252 2 252 -117 5 c-185 9
-195 9 -245 1 -44 -7 -51 -5 -115 38 l-69 45 -115 4 c-63 3 -120 3 -127 0z"/>
<path d="M110 620 c0 -11 7 -20 15 -20 8 0 15 9 15 20 0 11 -7 20 -15 20 -8 0
-15 -9 -15 -20z"/>
<path d="M162 608 c-30 -30 -2 -108 40 -108 21 0 48 33 48 58 0 45 -60 78 -88
50z m53 -38 c3 -5 2 -17 -3 -26 -8 -14 -10 -14 -25 1 -10 9 -15 21 -12 26 8
12 32 12 40 -1z"/>
<path d="M344 535 c-8 -19 -21 -35 -28 -35 -25 0 -74 -49 -86 -86 -13 -39 -7
-91 15 -120 12 -17 13 -14 4 25 -17 75 -2 108 71 162 19 15 50 40 69 58 l33
31 -31 0 c-27 0 -34 -5 -47 -35z"/>
<path d="M474 469 c-3 -5 -17 -6 -32 -3 -18 4 -32 0 -40 -9 -7 -8 -22 -13 -33
-10 -24 7 -69 -32 -69 -59 0 -11 -7 -26 -15 -34 -26 -26 -14 -164 15 -164 5 0
21 -12 35 -26 19 -19 32 -24 51 -20 15 4 34 0 49 -10 23 -15 27 -15 50 0 14 9
25 21 25 26 0 6 14 10 30 10 23 0 33 6 43 27 6 15 23 38 36 51 21 22 23 28 16
90 -5 52 -14 75 -36 103 -25 32 -33 36 -74 36 -25 0 -48 -4 -51 -8z m36 -24
c0 -8 4 -15 9 -15 5 0 11 7 15 15 8 22 34 18 47 -7 7 -13 18 -27 25 -31 16 -9
19 -53 4 -62 -17 -10 -11 -25 7 -18 14 5 15 1 9 -28 -7 -37 -26 -61 -33 -43
-8 23 -32 49 -38 42 -4 -4 0 -15 10 -24 12 -12 15 -26 11 -48 -9 -44 -50 -64
-59 -28 -3 15 -5 15 -11 -3 -21 -58 -53 -71 -80 -33 -13 18 -18 20 -25 9 -11
-18 -61 -6 -61 14 0 8 -9 15 -20 15 -13 0 -22 9 -26 25 -8 31 -7 31 31 41 27
7 29 6 16 -9 -11 -14 -11 -18 3 -23 8 -3 22 1 31 9 12 13 13 20 3 42 -10 22
-8 30 10 55 12 16 22 31 22 34 0 12 -40 25 -56 19 -15 -6 -15 -7 4 -14 26 -10
19 -39 -8 -32 -25 7 -35 -14 -10 -22 11 -3 20 -12 20 -19 0 -16 -60 -30 -73
-17 -11 11 0 64 12 57 5 -3 11 8 15 26 3 17 11 37 17 45 13 15 56 18 61 3 2
-5 17 -14 33 -19 26 -7 33 -5 49 17 11 14 14 22 8 18 -13 -8 -17 6 -5 17 12
13 33 7 33 -8z m-60 1 c0 -2 3 -11 6 -20 5 -12 0 -16 -19 -16 -24 0 -42 21
-30 34 7 7 43 8 43 2z"/>
<path d="M559 356 c27 -29 33 -32 25 -13 -2 7 -14 19 -27 26 -21 13 -21 12 2
-13z"/>
<path d="M473 360 c-13 -5 -23 -14 -23 -19 0 -6 -11 -13 -25 -17 -27 -7 -34
-31 -11 -40 8 -3 36 4 64 16 47 20 49 23 38 46 -12 26 -12 26 -43 14z"/>
<path d="M419 204 c18 -15 40 -24 53 -22 20 3 17 6 -20 26 -57 29 -71 28 -33
-4z"/>
<path d="M747 252 c-22 -24 -21 -55 1 -75 26 -23 58 -21 76 5 21 29 20 51 -2
71 -24 22 -55 21 -75 -1z m63 -32 c0 -12 -35 -31 -44 -23 -8 9 14 33 30 33 8
0 14 -4 14 -10z"/>
<path d="M635 170 c-10 -17 12 -37 25 -24 8 8 6 15 -4 23 -10 9 -16 9 -21 1z"/>
</g>
</svg>
