<svg width="96" height="96" xmlns="http://www.w3.org/2000/svg" xmlns:xlink="http://www.w3.org/1999/xlink" xml:space="preserve" overflow="hidden"><g transform="translate(-516 -159)"><path d="M559.196 167 558.138 177.193 564.303 175.909 564.544 173.588 601.347 177.409 596.391 225.152 580.41 223.493 581.694 229.659 601.738 231.74 607.935 172.06 559.196 167Z" fill="#860D4D"/><path d="M598.053 180.083 570.782 177.251 571.424 180.334 594.76 182.757 592.126 208.121 588.5 207.745 589.038 202.558C589.173 201.283 588.802 200.005 588.005 199 590.095 197.265 590.382 194.164 588.647 192.075 587.347 190.509 585.217 189.906 583.289 190.557 583.037 187.54 580.386 185.299 577.369 185.551 575.579 185.701 573.976 186.718 573.078 188.274L575 197.5C575.119 197.339 575.257 197.193 575.411 197.064 576.483 196.193 578.057 196.356 578.928 197.428 579.346 197.943 579.543 198.604 579.474 199.264L579.238 201.535 579.238 201.535 578.7 206.727 576.882 206.538 577.523 209.62 594.802 211.42ZM580.3 191.31C580.157 192.683 578.928 193.681 577.555 193.538 576.181 193.395 575.184 192.165 575.327 190.792 575.459 189.52 576.53 188.553 577.809 188.551 577.896 188.551 577.984 188.555 578.071 188.564 579.444 188.706 580.442 189.935 580.3 191.308 580.3 191.309 580.3 191.309 580.3 191.31ZM586.058 202.248 585.52 207.435 581.683 207.035 582.222 201.846C582.333 200.787 583.281 200.018 584.34 200.128 585.399 200.238 586.169 201.187 586.058 202.246ZM586.766 195.427 586.766 195.427C586.715 195.936 586.463 196.404 586.066 196.727 585.239 197.398 584.024 197.272 583.353 196.445 583.03 196.047 582.878 195.537 582.932 195.027 583.035 194.045 583.862 193.299 584.849 193.297 584.916 193.297 584.983 193.3 585.049 193.308 586.107 193.417 586.876 194.363 586.767 195.421 586.767 195.422 586.767 195.423 586.767 195.424Z" fill="#860D4D"/><path d="M532.177 246.948 519.948 188.207 567.92 178.221 580.149 236.961ZM527.046 192.859 536.828 239.851 573.052 232.31 563.269 185.318Z" fill="#860D4D"/><path d="M537.013 226.023 530.594 195.184 560.943 188.866 567.364 219.705ZM534.142 197.51 539.342 222.474 563.815 217.38 558.615 192.415Z" fill="#860D4D"/><path d="M551.07 217.391 550.035 216.9C548.988 216.4 539.775 211.847 538.59 206.2 538.126 203.549 539.461 200.908 541.872 199.711 543.755 198.848 545.968 199.166 547.531 200.525 548.415 198.651 550.314 197.468 552.386 197.5 555.075 197.627 557.36 199.508 558 202.123 559.185 207.772 552.577 215.643 551.819 216.523ZM543.591 202.27C543.439 202.303 543.291 202.353 543.15 202.419 541.999 203.027 541.351 204.288 541.526 205.578 542.181 208.698 547.444 212.115 550.288 213.655 552.329 211.046 555.722 205.881 555.063 202.738 554.706 201.487 553.605 200.592 552.307 200.5 550.63 200.455 549.413 202.175 549.101 203.343L548.521 205.243 547.221 203.759C546.338 202.684 544.974 202.125 543.591 202.27Z" fill="#860D4D"/></g></svg>