<svg width="96" height="96" xmlns="http://www.w3.org/2000/svg" xmlns:xlink="http://www.w3.org/1999/xlink" xml:space="preserve" overflow="hidden"><g transform="translate(-668 -111)"><path d="M713.21 118 713.21 118C717.075 130.337 725.291 140.065 735.71 144.641L735.71 144.641C725.291 149.217 717.075 158.941 713.21 171.282L713.21 171.282C709.344 158.945 701.129 149.217 690.71 144.641L690.71 144.641C701.129 140.065 709.344 130.337 713.21 118Z" fill="#D53DD0"/><path d="M735.615 163.566 735.615 163.566C738.258 172 743.876 178.653 751 181.783L751 181.783C743.876 184.912 738.258 191.564 735.615 200L735.615 200C732.972 191.564 727.354 184.912 720.23 181.783L720.23 181.783C727.354 178.653 732.972 172 735.615 163.566Z" fill="#D53DD0"/><path d="M692.876 164.106 692.876 164.106C694.333 169.245 697.931 173.508 702.753 175.806L702.753 175.806C697.932 178.103 694.334 182.363 692.876 187.5L692.876 187.5C691.42 182.361 687.821 178.098 683 175.8L683 175.8C687.82 173.503 691.418 169.242 692.876 164.105Z" fill="#D53DD0"/></g></svg>