<svg width="96" height="96" xmlns="http://www.w3.org/2000/svg" xmlns:xlink="http://www.w3.org/1999/xlink" xml:space="preserve" overflow="hidden"><g transform="translate(-350 -352)"><path d="M380.5 388.79C373.596 388.79 368 394.386 368 401.29 368 408.194 373.596 413.79 380.5 413.79 387.404 413.79 393 408.194 393 401.29 393 394.386 387.404 388.79 380.5 388.79ZM380.5 393.63C382.439 393.625 384.014 395.191 384.02 397.13 384.026 399.069 382.458 400.644 380.52 400.65 378.582 400.655 377.005 399.089 377 397.15 377 397.147 377 397.143 377 397.14 377 395.205 378.565 393.635 380.5 393.63ZM387.5 407.7 373.5 407.7 373.5 405C373.513 404.452 373.77 403.939 374.2 403.6 375.24 402.88 376.392 402.34 377.61 402 378.55 401.73 379.522 401.586 380.5 401.57 381.479 401.573 382.453 401.718 383.39 402 384.63 402.322 385.793 402.89 386.81 403.67 387.24 404.009 387.497 404.522 387.51 405.07Z" fill="#9B6BF2"/><path d="M406.9 385.52 394.66 392.86C395.349 394.018 395.9 395.253 396.3 396.54L408.91 389C408.066 387.949 407.389 386.776 406.9 385.52Z" fill="#9B6BF2"/><path d="M428 380.79C428 385.761 423.971 389.79 419 389.79 414.029 389.79 410 385.761 410 380.79 410 375.819 414.029 371.79 419 371.79 423.971 371.79 428 375.819 428 380.79Z" fill="#9B6BF2"/><path d="M408.91 413.6 396.3 406C395.9 407.287 395.349 408.522 394.66 409.68L406.9 417.06C407.391 415.812 408.069 414.645 408.91 413.6Z" fill="#9B6BF2"/><path d="M428 421.79C428 426.761 423.971 430.79 419 430.79 414.029 430.79 410 426.761 410 421.79 410 416.819 414.029 412.79 419 412.79 423.971 412.79 428 416.819 428 421.79Z" fill="#9B6BF2"/></g></svg>